<svg xmlns="http://www.w3.org/2000/svg" xmlns:xlink="http://www.w3.org/1999/xlink" width="1920" height="1080" viewBox="0 0 1920 1080">
  <defs>
    <style>
      .cls-1, .cls-12 {
        fill: none;
      }

      .cls-2 {
        fill: #504039;
      }

      .cls-3 {
        clip-path: url(#clip-path);
      }

      .cls-4 {
        clip-path: url(#clip-path-2);
      }

      .cls-5 {
        fill: #7029dc;
      }

      .cls-6 {
        fill: url(#linear-gradient);
      }

      .cls-7 {
        fill: #fff;
      }

      .cls-8 {
        fill: url(#linear-gradient-5);
      }

      .cls-9 {
        fill: url(#linear-gradient-6);
      }

      .cls-10 {
        fill: url(#linear-gradient-7);
      }

      .cls-11 {
        fill: url(#linear-gradient-8);
      }

      .cls-12 {
        stroke: #ffce00;
        stroke-linecap: round;
        stroke-miterlimit: 10;
      }

      .cls-13 {
        fill: url(#linear-gradient-9);
      }

      .cls-14 {
        fill: #5b2a7c;
        opacity: 0.2;
      }

      .cls-15 {
        fill: #42342e;
      }

      .cls-16 {
        fill: #ffedff;
      }

      .cls-17 {
        clip-path: url(#clip-path-3);
      }

      .cls-18 {
        clip-path: url(#clip-path-4);
      }

      .cls-19 {
        fill: #ffb742;
      }

      .cls-20 {
        fill: #e09e7f;
      }

      .cls-21 {
        fill: #c33;
      }

      .cls-22 {
        fill: #eea987;
      }

      .cls-23 {
        fill: #665249;
      }

      .cls-24 {
        fill: #2e2626;
      }

      .cls-25 {
        fill: #2f6b8c;
      }

      .cls-26 {
        fill: #ffb900;
      }

      .cls-27 {
        fill: #e43f3f;
      }

      .cls-28 {
        fill: #eea886;
      }

      .cls-29 {
        fill: #a77860;
      }
    </style>
    <clipPath id="clip-path">
      <rect id="SVGID" class="cls-1" width="1920" height="1080"/>
    </clipPath>
    <clipPath id="clip-path-2">
      <path id="SVGID-2" data-name="SVGID" class="cls-1" d="M1730.714,1326.343l-775.281-50.562-48.876-246.068L670.6,743.2,552.625,412.86,706,136.455,1206.557-50.624s517.416-114.606,541.011-116.292,443.259,510.675,443.259,510.675L2082.962,857.8,1963.3,1309.489Z" transform="translate(-552.625 166.92)"/>
    </clipPath>
    <linearGradient id="linear-gradient" y1="0.5" x2="1" y2="0.5" gradientUnits="objectBoundingBox">
      <stop offset="0" stop-color="#89bdb5"/>
      <stop offset="1" stop-color="#44978a"/>
    </linearGradient>
    <linearGradient id="linear-gradient-5" x1="-10.355" y1="0.5" x2="-11.355" y2="0.5" xlink:href="#linear-gradient"/>
    <linearGradient id="linear-gradient-6" x1="-10.04" y1="0.5" x2="-11.04" y2="0.5" xlink:href="#linear-gradient"/>
    <linearGradient id="linear-gradient-7" x1="-13.813" y1="0.5" x2="-14.813" y2="0.5" xlink:href="#linear-gradient"/>
    <linearGradient id="linear-gradient-8" x1="-12.199" y1="0.5" x2="-13.199" y2="0.5" xlink:href="#linear-gradient"/>
    <linearGradient id="linear-gradient-9" x1="1.161" y1="0.605" x2="-0.186" y2="0.085" gradientUnits="objectBoundingBox">
      <stop offset="0" stop-color="#5d15d3"/>
      <stop offset="1" stop-color="#a561f5"/>
    </linearGradient>
    <clipPath id="clip-path-3">
      <path id="Caminho_52" data-name="Caminho 52" class="cls-2" d="M796.818,375.312c-11.216,2.1-18.006,13.267-18.006,13.267s-23.693,6.633-27.483,9.477,1.9,16.11,1.9,16.11l36.958-.948s6.635,45.489,45.489,71.076c1.9,30.327.948,55.914.948,55.914s-15.164,5.686-13.267,11.371c11.373,1.9,25.989.089,25.989.089l3-64.977s26.921-.5,43.031-9.978c23.118-13.6,42.645-15.163,42.645-15.163s-2.181,38,26.25,48.428,41.315,1.126,41.315,1.126l-11.643,25.165s-15.4,3-15.171,11.52l25.589.948s24.547-52.263,20.757-54.159-34.972-1.754-34.024-24.5-3.791-64.443-32.221-60.652-73.92,8.529-99.507,9.477S827.144,369.625,796.818,375.312Z" transform="translate(-750.026 -374.863)"/>
    </clipPath>
    <clipPath id="clip-path-4">
      <path id="Caminho_55" data-name="Caminho 55" class="cls-2" d="M891.152,437.078c2.844-.948,82.449-25.589,48.332-104.246,76.762,9.477,66.339,136.466-35.064,106.14" transform="translate(-891.152 -332.832)"/>
    </clipPath>
  </defs>
  <g id="Ilustração" transform="translate(0 0)">
    <g id="Grupo_64" data-name="Grupo 64" class="cls-3" transform="translate(0 0)">
      <g id="Grupo_63" data-name="Grupo 63" transform="translate(828.938 -250.38)">
        <g id="Grupo_4" data-name="Grupo 4">
          <g id="Grupo_3" data-name="Grupo 3" class="cls-4">
            <path id="Caminho_11" data-name="Caminho 11" class="cls-5" d="M80.784,587.69C68.316,666.279,67.548,749.127,97.512,822.842s95.414,136.5,174.375,146.305c99.558,12.359,188.533-57,283.677-88.815,109.788-36.717,235.815-21.179,333.4,41.106,59.328,37.869,107.7,91.317,168.1,127.449s142.046,51.747,198.87,10.213c49.944-36.5,64.723-107.9,48.684-167.649s-57.242-109.513-101.961-152.259S1108.41,658.4,1068.677,610.982c-31.718-37.853-73.07-98.334-65.832-147.186,5.826-39.331,30.029-67.531,52.44-88.858,85.351-81.217,219.325-103.564,291.661-196.564C1392.614,119.66,1421.291,42.5,1487.13,7.895,1537.156-18.4,1597.244-13.443,1653.3-6.28c145.335,18.567,339.844-24.512,455.691,65.195,96.22,74.509,116.736,259.572,147.318,377.367,69.185,266.487-48.039,570.852-278.1,722.075-221.186,145.389-506.006,146.118-768.9,115.411s-529.229-87.679-789.574-39.955c-78.767,14.439-159.741,38.364-237.365,18.684C66.542,1223.13-8.83,1085.814,28.586,972.323" transform="translate(-819.479 244.386)"/>
          </g>
        </g>
        <g id="Grupo_9" data-name="Grupo 9" transform="translate(615.785 490.706)">
          <path id="Caminho_12" data-name="Caminho 12" class="cls-6" d="M970.463,160.571c7.22-3.453,14.4,19.529,14.4,19.529,12.27,16.212,29.418-5.357,27.741,18.881-2.934,42.409,48.815,13.336,24.941,57.613s21.081,25.035,6.244,60.737,4.394,78.284-17.931,60.786c0,0-19.656-43.105-39.927-56.442s12.144-29.16,5.8-47.274c-9.213-26.31-31.408-25.275-15.4-53.549S945.925,172.307,970.463,160.571Z" transform="translate(-963.149 -160.217)"/>
          <g id="Grupo_5" data-name="Grupo 5" transform="translate(29.059 44.96)">
            <path id="Caminho_13" data-name="Caminho 13" class="cls-7" d="M1023.245,346.906c-9.677-6.805-21-54.229-21.677-82.477-.346-14.468-4.625-20.5-8.4-25.815-3.607-5.083-6.723-9.474-4.908-19.555,3.468-19.266-5.649-27.582-5.742-27.663l1.054-1.2c.407.355,9.9,8.934,6.263,29.151-1.7,9.42,1.1,13.359,4.638,18.347,3.712,5.234,8.334,11.745,8.691,26.7.726,30.315,12.3,75.091,21,81.206Z" transform="translate(-982.521 -190.191)"/>
          </g>
          <g id="Grupo_6" data-name="Grupo 6" transform="translate(61.415 110.196)">
            <path id="Caminho_14" data-name="Caminho 14" class="cls-6" d="M1016.08,328.677a20.612,20.612,0,0,1-4.092-.445c-3.729-.753-6.174-2.721-7.268-5.847-2.61-7.461,3.435-19.579,8.34-25.421a37.3,37.3,0,0,0,7.416-24.041c-.147-2.331-.389-4.489-.6-6.393-.618-5.5-1.063-9.481,1.3-12.138,2.084-2.342,6.107-3.354,13.449-3.389,12.877-.062,17.97-5.393,22.062-9.676a23.287,23.287,0,0,1,5.373-4.628h0c6.417-3.5,13.215-4.018,16.162-1.224,1.4,1.327,2.583,3.927.264,8.775a33.9,33.9,0,0,1-7.078,9.492c-2.971,3.032-4.935,5.036-3.913,9.029.24.938.516,1.884.8,2.835,1.984,6.791,4.234,14.487-7.386,19.709-2.466,1.108-4.713,1.991-6.7,2.769-8.113,3.183-13.009,5.106-18.537,16.774-1.07,2.258-2.015,4.4-2.928,6.47C1028.383,321.206,1025.086,328.676,1016.08,328.677Zm46.746-90.572a21.874,21.874,0,0,0-4.983,4.326c-4.3,4.5-9.653,10.109-23.211,10.173-6.752.032-10.533.911-12.261,2.851-1.889,2.124-1.476,5.8-.906,10.9.216,1.922.459,4.1.609,6.469a38.235,38.235,0,0,1-7.787,25.17c-4.855,5.781-10.356,17.29-8.056,23.863.894,2.558,2.937,4.175,6.074,4.809,10.946,2.211,13.966-4.637,18.973-15.981.917-2.081,1.866-4.232,2.946-6.51,5.8-12.241,11.209-14.366,19.4-17.578,1.965-.773,4.194-1.646,6.624-2.739,10.35-4.651,8.483-11.038,6.507-17.8-.283-.968-.565-1.932-.81-2.886-1.245-4.866,1.21-7.374,4.321-10.547a32.094,32.094,0,0,0,6.777-9.061c1.052-2.2,1.919-5.181.081-6.924-2.418-2.292-8.565-1.662-14.3,1.468Z" transform="translate(-1004.092 -233.681)"/>
          </g>
          <g id="Grupo_7" data-name="Grupo 7" transform="translate(67.886 122.977)">
            <path id="Caminho_15" data-name="Caminho 15" class="cls-6" d="M1010,333.654l-1.6-.083c.078-1.5,2.094-36.894,16.305-47.251,15.589-11.364,20.505-23.576,22.845-31.773,2.76-9.66,16.8-12.24,17.4-12.345l.279,1.575c-.137.024-13.652,2.515-16.136,11.209-2.4,8.424-7.453,20.972-23.442,32.627C1012.052,297.527,1010.023,333.294,1010,333.654Z" transform="translate(-1008.406 -242.202)"/>
          </g>
          <path id="Caminho_16" data-name="Caminho 16" class="cls-6" d="M1049.333,184.4c-10.1-3.464-8,16-12.268,30.408s-47.478,6.283-29.34,42.351-22.94,12.061-10.669,43.534,1.066,65.136,14.4,56.574,7.492-48.2,21.363-52.907,16.133-10.2,2.4-23,35.984-25.514,23.715-51.366S1061,188.4,1049.333,184.4Z" transform="translate(-947.36 -148.33)"/>
          <g id="Grupo_8" data-name="Grupo 8" transform="translate(64.013 81.218)">
            <path id="Caminho_17" data-name="Caminho 17" class="cls-7" d="M1012.1,340.572c-1.27-5.388-12.117-52.8-1.995-58.536,8.92-5.052,8.7-24.7,7.308-43.254-1.232-16.425,19.863-24.1,20.761-24.419l.535,1.508c-.21.074-20.841,7.588-19.7,22.791,1.429,19.054,1.582,39.274-8.117,44.768-7.685,4.351-.609,42.459,2.766,56.775Z" transform="translate(-1005.824 -214.363)"/>
          </g>
        </g>
        <g id="Grupo_14" data-name="Grupo 14" transform="translate(967.566 484.31)">
          <path id="Caminho_18" data-name="Caminho 18" class="cls-8" d="M1309.675,156.307c-7.218-3.453-14.4,19.528-14.4,19.528-12.27,16.212-29.416-5.356-27.739,18.881,2.934,42.409-48.816,13.336-24.941,57.613s-21.081,25.035-6.244,60.737-4.394,78.283,17.929,60.786c0,0,19.656-43.105,39.929-56.442s-12.146-29.16-5.8-47.274c9.211-26.31,31.407-25.275,15.4-53.548S1334.213,168.043,1309.675,156.307Z" transform="translate(-1179.868 -155.953)"/>
          <g id="Grupo_10" data-name="Grupo 10" transform="translate(66.42 44.96)">
            <path id="Caminho_19" data-name="Caminho 19" class="cls-7" d="M1242.87,342.642c9.677-6.805,21-54.229,21.677-82.477.346-14.467,4.623-20.5,8.4-25.815,3.607-5.083,6.722-9.474,4.906-19.555-3.466-19.266,5.65-27.582,5.744-27.665l-1.056-1.2c-.405.355-9.9,8.933-6.263,29.151,1.7,9.42-1.1,13.359-4.638,18.346-3.713,5.233-8.332,11.745-8.691,26.7-.724,30.315-12.3,75.092-21,81.206Z" transform="translate(-1241.949 -185.927)"/>
          </g>
          <g id="Grupo_11" data-name="Grupo 11" transform="translate(0 110.196)">
            <path id="Caminho_20" data-name="Caminho 20" class="cls-9" d="M1244.727,307.064c-.913-2.07-1.858-4.212-2.928-6.47-5.529-11.669-10.425-13.591-18.537-16.774-1.983-.779-4.23-1.661-6.7-2.769-11.622-5.221-9.372-12.918-7.386-19.708.277-.951.555-1.9.8-2.835,1.021-3.993-.942-6-3.913-9.029a33.905,33.905,0,0,1-7.079-9.492c-2.321-4.848-1.139-7.448.262-8.775,2.948-2.794,9.746-2.28,16.164,1.224h0a23.385,23.385,0,0,1,5.373,4.626c4.09,4.285,9.183,9.616,22.061,9.678,7.344.034,11.365,1.047,13.449,3.389,2.364,2.656,1.918,6.633,1.3,12.138-.213,1.9-.456,4.062-.6,6.392a37.31,37.31,0,0,0,7.416,24.042c4.907,5.841,10.95,17.96,8.342,25.421-1.093,3.126-3.538,5.094-7.269,5.847a20.59,20.59,0,0,1-4.09.445C1252.383,324.412,1249.085,316.942,1244.727,307.064Zm-30.084-73.222c-5.732-3.131-11.878-3.761-14.3-1.469-1.837,1.743-.97,4.727.08,6.924a32.1,32.1,0,0,0,6.779,9.062c3.109,3.173,5.567,5.68,4.32,10.547-.244.954-.525,1.918-.809,2.886-1.977,6.762-3.844,13.149,6.505,17.8,2.432,1.094,4.659,1.967,6.624,2.739,8.19,3.213,13.6,5.337,19.4,17.579,1.079,2.279,2.028,4.429,2.946,6.51,5.005,11.345,8.028,18.192,18.972,15.981,3.136-.635,5.181-2.251,6.075-4.809,2.3-6.573-3.2-18.082-8.058-23.863a38.227,38.227,0,0,1-7.785-25.17c.149-2.37.393-4.548.607-6.47.572-5.092.984-8.772-.906-10.9-1.727-1.941-5.508-2.82-12.261-2.852-13.559-.064-18.911-5.669-23.211-10.173a21.906,21.906,0,0,0-4.981-4.326Z" transform="translate(-1197.669 -229.417)"/>
          </g>
          <g id="Grupo_12" data-name="Grupo 12" transform="translate(12.413 122.977)">
            <path id="Caminho_21" data-name="Caminho 21" class="cls-10" d="M1261.17,329.39l1.6-.083c-.08-1.5-2.1-36.894-16.305-47.251-15.591-11.364-20.505-23.576-22.847-31.773-2.758-9.66-16.8-12.241-17.394-12.345l-.279,1.575c.137.024,13.651,2.515,16.134,11.209,2.406,8.424,7.453,20.971,23.442,32.627C1259.121,293.263,1261.152,329.03,1261.17,329.39Z" transform="translate(-1205.944 -237.938)"/>
          </g>
          <path id="Caminho_22" data-name="Caminho 22" class="cls-11" d="M1224.957,180.134c10.1-3.463,8,16.005,12.27,30.408s47.478,6.284,29.34,42.351,22.938,12.062,10.67,43.535-1.068,65.136-14.4,56.574-7.492-48.2-21.363-52.907-16.134-10.2-2.4-23-35.985-25.513-23.715-51.366S1213.288,184.136,1224.957,180.134Z" transform="translate(-1189.809 -144.066)"/>
          <g id="Grupo_13" data-name="Grupo 13" transform="translate(40.227 81.218)">
            <path id="Caminho_23" data-name="Caminho 23" class="cls-7" d="M1251.1,336.308c1.271-5.388,12.117-52.8,2-58.536-8.92-5.052-8.7-24.7-7.309-43.254,1.231-16.425-19.861-24.1-20.76-24.419l-.536,1.508c.208.073,20.84,7.588,19.7,22.791-1.428,19.055-1.583,39.275,8.116,44.766,7.686,4.353.61,42.461-2.764,56.777Z" transform="translate(-1224.487 -210.099)"/>
          </g>
        </g>
        <g id="Trigo" transform="translate(534.306 583.671)">
          <line id="Linha_1" data-name="Linha 1" class="cls-12" x1="32.63" y1="106.927" transform="translate(13.058)"/>
          <line id="Linha_2" data-name="Linha 2" class="cls-12" y1="24.484" x2="8.297" transform="translate(23.335 7.53)"/>
          <path id="Caminho_24" data-name="Caminho 24" class="cls-12" d="M927.779,265.256c0-1.506,15.758-28.671,15.758-28.671" transform="translate(-899.354 -214.999)"/>
          <path id="Caminho_25" data-name="Caminho 25" class="cls-12" d="M947.791,252.73l-4.455,28-32.668-7.212" transform="translate(-907.91 -206.927)"/>
          <path id="Caminho_26" data-name="Caminho 26" class="cls-12" d="M971.126,261.5s-26.729,25.88-27.153,26.515l-26.093.213" transform="translate(-904.303 -202.542)"/>
          <line id="Linha_3" data-name="Linha 3" class="cls-12" x1="17.395" y1="12.516" transform="translate(12.516 43.682)"/>
          <line id="Linha_4" data-name="Linha 4" class="cls-12" x1="24.607" y1="10.819" transform="translate(0 27.135)"/>
          <line id="Linha_5" data-name="Linha 5" class="cls-12" x1="11.407" y1="2.604" transform="translate(6.364 12.923)"/>
        </g>
        <g id="Trigo-2" data-name="Trigo" transform="translate(873.276 592.594)">
          <line id="Linha_6" data-name="Linha 6" class="cls-12" y1="148.674" x2="29.86" transform="translate(25.299 0)"/>
          <line id="Linha_7" data-name="Linha 7" class="cls-12" y1="23.894" x2="25.666" transform="translate(46.824 20.946)"/>
          <path id="Caminho_27" data-name="Caminho 27" class="cls-12" d="M1162.25,282.774c.969-1.8,37.268-24.093,37.268-24.093" transform="translate(-1121.089 -212.874)"/>
          <path id="Caminho_28" data-name="Caminho 28" class="cls-12" d="M1192.515,276.112l-23.341,30.567-34.365-29.638" transform="translate(-1134.809 -204.158)"/>
          <path id="Caminho_29" data-name="Caminho 29" class="cls-12" d="M1216.008,298.926s-48.573,13.7-49.488,14.186l-31.292-16.54" transform="translate(-1134.599 -193.929)"/>
          <line id="Linha_8" data-name="Linha 8" class="cls-12" x1="12.714" y1="26.14" transform="translate(26.397 51.808)"/>
          <line id="Linha_9" data-name="Linha 9" class="cls-12" x1="22.418" y1="28.756" transform="translate(22.103 23.996)"/>
          <line id="Linha_10" data-name="Linha 10" class="cls-12" x1="11.945" y1="10.452" transform="translate(38.849 11.121)"/>
        </g>
        <g id="Trigo-3" data-name="Trigo" transform="translate(431.794 681.31)">
          <line id="Linha_11" data-name="Linha 11" class="cls-12" x1="56.373" y1="121.38" transform="translate(20.855 5.831)"/>
          <line id="Linha_12" data-name="Linha 12" class="cls-12" x1="31.083" y1="21.658" transform="translate(6.198 20.92)"/>
          <path id="Caminho_30" data-name="Caminho 30" class="cls-12" d="M887.812,333.923c-1.2-1.343-47.324-14.092-47.324-14.092" transform="translate(-840.488 -271.016)"/>
          <path id="Caminho_31" data-name="Caminho 31" class="cls-12" d="M862.857,336.395l26.349,21.4,23.352-32.537" transform="translate(-829.303 -268.303)"/>
          <path id="Caminho_32" data-name="Caminho 32" class="cls-12" d="M853.857,361.093s44.506,1.706,45.393,1.934l23.424-20.664" transform="translate(-833.804 -259.749)"/>
          <line id="Linha_13" data-name="Linha 13" class="cls-12" y1="25.057" x2="5.501" transform="translate(50.747 44.33)"/>
          <line id="Linha_14" data-name="Linha 14" class="cls-12" y1="37.267" x2="17.992" transform="translate(40.894 11.622)"/>
          <line id="Linha_15" data-name="Linha 15" class="cls-12" y1="23.437" x2="8.903" transform="translate(29.063)"/>
        </g>
        <g id="Chão" transform="translate(186.663 545.299)">
          <path id="Caminho_33" data-name="Caminho 33" class="cls-13" d="M1627.767,196.613c-46.755,60.729-118.216,101.841-194.217,111.733-108.99,14.186-222.8-33-327.793-.516-70.051,21.676-126.638,76.539-197.493,95.421-36.268,9.664-74.366,9.34-111.531,14.6s-75.651,17.5-100.02,46.045-28.089,76.913.375,101.382c15.742,13.531,37.419,17.361,58.021,19.906,105.54,13.045,217.482,7.116,311.871,56.1,28.236,14.655,56.519,38.218,58.356,69.978,1.563,27.013-16.528,51-22.406,77.414-6.835,30.712,3.678,63.535,22.779,88.537s46,43.01,74.151,57.059c83.636,41.737,182.877,51.207,272.9,26.038,42.81-11.97,83.735-31.653,118.124-59.818,73.589-60.268,112.324-156.777,114.042-251.88s-30.728-188.555-79.5-270.218" transform="translate(-677.067 -196.613)"/>
        </g>
        <g id="Sombra" transform="translate(328.365 720.42)">
          <path id="Caminho_34" data-name="Caminho 34" class="cls-14" d="M1571.746,325.5c-5.272,4.242-14.245,6-22.654,7.487-37.768,6.662-76.17,12.554-115.4,14.256-83.793,3.638-170.314-11.792-250.818,2.777-6.083,1.1-12.231,2.418-17.114,4.879s-8.314,6.3-7.347,10.107c1.488,5.853,11.907,9.045,21.2,10.851,14.74,2.865,29.985,4.66,45.267,6.147,68.7,6.681,139.794,7.13,207.192-3.352s131-32.432,174.677-65.3" transform="translate(-578.178 -313.36)"/>
          <path id="Caminho_35" data-name="Caminho 35" class="cls-14" d="M1498.989,446.114c-6.482,8.6-17.511,12.16-27.849,15.166-46.424,13.5-93.627,25.431-141.85,28.883-103,7.369-209.354-23.891-308.309,5.625-7.476,2.23-15.035,4.9-21.036,9.883s-10.219,12.765-9.031,20.477c1.828,11.858,14.637,18.324,26.063,21.984,18.117,5.8,36.855,9.441,55.641,12.451,84.447,13.535,171.835,14.445,254.682-6.792s161.032-65.7,214.714-132.279" transform="translate(-661.946 -259.284)"/>
          <path id="Caminho_36" data-name="Caminho 36" class="cls-14" d="M1009.451,446.451c6.239-.534,12.981-1.617,15.531-3.965,3.6-3.309-3.33-7.02-11.19-8.773-14.855-3.317-56.279-5.633-63.386,3.275C942.214,447.253,995.057,447.685,1009.451,446.451Z" transform="translate(-682.528 -254.661)"/>
          <path id="Caminho_37" data-name="Caminho 37" class="cls-14" d="M947.974,499.615c18.364-.753,38.2-2.07,45.681-4.506,10.548-3.433-9.887-6.9-33.05-8.383-43.77-2.8-165.75-3.669-186.57,5.484C750.037,502.762,905.614,501.35,947.974,499.615Z" transform="translate(-771.535 -227.635)"/>
          <path id="Caminho_38" data-name="Caminho 38" class="cls-14" d="M974.254,562.079c8.708-1.188,18.114-3.593,21.675-8.806,5.017-7.35-4.647-15.591-15.617-19.488-20.729-7.365-78.534-12.51-88.452,7.272C880.425,563.861,954.167,564.818,974.254,562.079Z" transform="translate(-711.971 -206.428)"/>
          <path id="Caminho_39" data-name="Caminho 39" class="cls-14" d="M1173.52,388.869c3.678-.8,7.65-2.431,9.153-5.96,2.12-4.972-1.962-10.548-6.594-13.185-8.754-4.983-33.165-8.464-37.354,4.92C1133.9,390.075,1165.037,390.721,1173.52,388.869Z" transform="translate(-588.193 -287.397)"/>
          <path id="Caminho_40" data-name="Caminho 40" class="cls-14" d="M1188.111,372.3a15.038,15.038,0,0,0,4.888,1.6,22.055,22.055,0,0,0,7.292.56,8.243,8.243,0,0,0,6.077-3.666,4.366,4.366,0,0,0,.55-3.348c-.5-1.707-2.244-2.723-3.93-3.286-3.658-1.222-8.853-1.35-12.33.622C1188.254,366.144,1184.642,370.214,1188.111,372.3Z" transform="translate(-563.964 -288.408)"/>
          <path id="Caminho_41" data-name="Caminho 41" class="cls-14" d="M860.074,343.206a132.049,132.049,0,0,0,14.153,1.32c6.957.393,14.086.739,21.111.46s14.033-1.276,17.6-3.021c1.692-.828,2.532-1.839,1.595-2.759-1.436-1.407-6.5-2.244-11.381-2.707-10.594-1.008-25.63-1.115-35.7.512C860.485,338.135,850.028,341.489,860.074,343.206Z" transform="translate(-729.342 -302.159)"/>
          <path id="Caminho_42" data-name="Caminho 42" class="cls-14" d="M944.231,523.067a15,15,0,0,0,4.889,1.6,22.055,22.055,0,0,0,7.291.561,8.24,8.24,0,0,0,6.076-3.668,4.363,4.363,0,0,0,.551-3.348c-.5-1.707-2.244-2.722-3.93-3.285-3.66-1.222-8.852-1.352-12.33.621C944.374,516.913,940.762,520.982,944.231,523.067Z" transform="translate(-685.904 -213.023)"/>
          <path id="Caminho_43" data-name="Caminho 43" class="cls-14" d="M944.729,456.044a25.56,25.56,0,0,0,5.912,1.254,40.739,40.739,0,0,0,8.818.438c2.934-.264,5.862-1.214,7.35-2.872a2.445,2.445,0,0,0,.666-2.622c-.6-1.337-2.715-2.132-4.753-2.574-4.425-.957-10.706-1.057-14.913.487C944.9,451.223,940.533,454.41,944.729,456.044Z" transform="translate(-685.805 -245.556)"/>
        </g>
        <g id="Cachorro" transform="translate(294.034 749.628)">
          <path id="Caminho_44" data-name="Caminho 44" class="cls-15" d="M858,434.031s-9.477,37.906,26.535,47.383c-4.739,11.371-15.978,27.94-15.978,27.94s-18.138,2.385-17.192,10.914c23.692,0,31.089-.4,31.089-.4l28.615-56.463s2.844-39.8-8.529-42.645S858,434.031,858,434.031Z" transform="translate(-697.309 -289.035)"/>
          <path id="Caminho_45" data-name="Caminho 45" class="cls-15" d="M782.854,391.9l-7.581-35.064s26.535,4.739,26.535,34.116" transform="translate(-735.335 -320.828)"/>
          <path id="Caminho_46" data-name="Caminho 46" class="cls-2" d="M788.923,395.144l-21.131-28.992s26.183-6.411,38.078,20.451" transform="translate(-739.075 -316.507)"/>
          <path id="Caminho_47" data-name="Caminho 47" class="cls-16" d="M801.092,460.97s-3.264,30.9-8.115,37.38c-2.026,4.154-15.633,8.385-19.008,5.022-2.848-2.838,6.072-8.122,10.886-15.218.972-13.681,4.54-44.464,4.54-44.464L829.889,428l9.477,18.231Z" transform="translate(-736.261 -285.25)"/>
          <g id="Grupo_16" data-name="Grupo 16" transform="translate(2.068 63.046)">
            <path id="Caminho_48" data-name="Caminho 48" class="cls-2" d="M796.818,375.312c-11.216,2.1-18.006,13.267-18.006,13.267s-23.693,6.633-27.483,9.477,1.9,16.11,1.9,16.11l36.958-.948s6.635,45.489,45.489,71.076c1.9,30.327.948,55.914.948,55.914s-15.164,5.686-13.267,11.371c11.373,1.9,25.989.089,25.989.089l3-64.977s26.921-.5,43.031-9.978c23.118-13.6,42.645-15.163,42.645-15.163s-2.181,38,26.25,48.428,41.315,1.126,41.315,1.126l-11.643,25.165s-15.4,3-15.171,11.52l25.589.948s24.547-52.263,20.757-54.159-34.972-1.754-34.024-24.5-3.791-64.443-32.221-60.652-73.92,8.529-99.507,9.477S827.144,369.625,796.818,375.312Z" transform="translate(-750.026 -374.863)"/>
            <g id="Grupo_15" data-name="Grupo 15" class="cls-17">
              <path id="Caminho_49" data-name="Caminho 49" class="cls-16" d="M781.117,396.777c3.478-2.38,6.746-5.163,10.635-6.788s8.7-1.875,12.049.68c4.333,3.3,4.563,9.585,4.88,15.024.783,13.473,4.6,26.958,12.309,38.037s19.506,19.569,32.8,21.927c12.159,2.157,24.639-.8,36.348-4.723a219.662,219.662,0,0,0,25.52-10.373c4.75-2.287,9.656-4.8,14.928-4.758s10.95,3.695,11.187,8.962c.242,5.34-4.8,9.273-9.461,11.892-17.545,9.861-38.286,15.894-50.852,31.618-7.165,8.967-10.867,20.289-12.494,31.653-1.129,7.9-1.692,16.724-7.483,22.214-3.309,3.137-7.844,4.622-12.307,5.553-9.882,2.064-20.612,1.75-29.529-2.983s-15.528-14.508-14.595-24.561c.552-5.953,3.568-11.475,4.053-17.434.437-5.365-1.209-10.658-2.833-15.789-3.485-11.007-7.008-22.1-12.669-32.166A84.534,84.534,0,0,0,764.254,434.3c-6.6-4.045-31.7-17.811-19.675-28.368,4.618-4.053,11.485-1.734,16.915-2.068A39.758,39.758,0,0,0,781.117,396.777Z" transform="translate(-754.358 -367.915)"/>
              <path id="Caminho_50" data-name="Caminho 50" class="cls-16" d="M786.475,374.654a18.218,18.218,0,0,0-8.727-2.42,9.543,9.543,0,0,0-7.839,3.986c-1.808,2.808-1.53,6.609.051,9.551a18.71,18.71,0,0,0,7.143,6.849,16.549,16.549,0,0,0,4.68,2.046c5.181,1.206,10.868-1.927,13.121-6.745s1.231-10.835-2.042-15.029" transform="translate(-740.709 -376.178)"/>
              <path id="Caminho_51" data-name="Caminho 51" class="cls-15" d="M779.927,388.247a4.8,4.8,0,0,0,2.605.018c1.335-.3,2.753-1.075,3.047-2.412a3.932,3.932,0,0,0-1.405-3.361,3.652,3.652,0,0,0-1.872-1.186,3.261,3.261,0,0,0-1.37.106,4.7,4.7,0,0,0-2.886,1.906A3.62,3.62,0,0,0,779.927,388.247Z" transform="translate(-736.217 -371.658)"/>
            </g>
          </g>
          <g id="Grupo_18" data-name="Grupo 18" transform="translate(213.757)">
            <path id="Caminho_53" data-name="Caminho 53" class="cls-2" d="M891.152,437.078c2.844-.948,82.449-25.589,48.332-104.246,76.762,9.477,66.339,136.466-35.064,106.14" transform="translate(-891.152 -332.832)"/>
            <g id="Grupo_17" data-name="Grupo 17" class="cls-18">
              <path id="Caminho_54" data-name="Caminho 54" class="cls-2" d="M939.32,330.856c14.184,11.553,29.106,24.657,32.829,42.567,2.833,13.626-1.575,28.074-9.637,39.42S943.033,432.75,931,439.742c-8.328,4.839-17.152,9.055-26.594,10.965-5.486,1.11-11.3,1.487-16.134,4.3,16.524,9.667,34.458,19.008,53.591,18.319,21.316-.768,40.357-14.037,54.6-29.911,7.767-8.655,14.651-18.488,17.608-29.734a67.1,67.1,0,0,0,1.958-14.612,108,108,0,0,0-17.151-62.213c-6.6-10.2-15.261-19.479-26.355-24.427" transform="translate(-892.592 -343.032)"/>
            </g>
          </g>
          <path id="Caminho_56" data-name="Caminho 56" class="cls-15" d="M754.861,389.459s-4.776-.8-5.97,1.393,2.388,7.962,2.388,7.962Z" transform="translate(-748.648 -304.589)"/>
          <path id="Caminho_57" data-name="Caminho 57" class="cls-19" d="M828.811,394.965l4.491,9.594-52.961,20.5-3.585-9.885Z" transform="translate(-734.593 -301.765)"/>
        </g>
        <path id="Coleira" class="cls-16" d="M1079.146,294.171,813.69,468.011l-2.309-5.366L1074.25,291a3.231,3.231,0,0,0,.5-5.005l-11.71-11.531a5.651,5.651,0,0,1,.482-8.475h0l16.811,16.858a7.335,7.335,0,0,1-1.187,11.325Z" transform="translate(-423.247 383.374)"/>
        <g id="Pessoa" transform="translate(633.629 428.88)">
          <g id="Grupo_21" data-name="Grupo 21" transform="translate(288.559 21.068)">
            <g id="Grupo_20" data-name="Grupo 20">
              <g id="Grupo_19" data-name="Grupo 19">
                <path id="Caminho_58" data-name="Caminho 58" class="cls-20" d="M1176.283,158.414s1.909-6.546-1.01-9.122c-2.481-2.189-4.107-6.81-4.61-8.233-.673-1.9-4.914-6.969-2.523-7.842s7.392,8.019,8.812,9.675,3.03-7.968,4.708-9.5,17.466,2.039,15.6,8.516-8.139,12.16-8.241,13.365a41.542,41.542,0,0,1-1.173,4.766Z" transform="translate(-1167.417 -133.046)"/>
              </g>
            </g>
          </g>
          <g id="Grupo_24" data-name="Grupo 24" transform="translate(302.011 0)">
            <g id="Grupo_23" data-name="Grupo 23">
              <g id="Grupo_22" data-name="Grupo 22">
                <path id="Caminho_59" data-name="Caminho 59" class="cls-20" d="M1176.385,141.827s7.037-19.446,8.591-20.349,2.584-.459,2,1.386-6.254,18.986-6.254,18.986,12.2-21.618,13.3-22.637c.651-.6,2.7.146,2.478,1.161s-11.081,23.135-11.081,23.135,11.423-20.165,12.6-20.738a1.6,1.6,0,0,1,2,2.2c-.744,1.554-10.288,20.867-10.288,20.867s9.235-14.153,10.524-14.049c.787.063,2.587.621.088,4.2s-7.5,12.636-7.5,12.636Z" transform="translate(-1176.385 -119)"/>
              </g>
            </g>
          </g>
          <g id="Grupo_27" data-name="Grupo 27" transform="translate(0 217.415)">
            <g id="Grupo_26" data-name="Grupo 26">
              <g id="Grupo_25" data-name="Grupo 25">
                <path id="Caminho_60" data-name="Caminho 60" class="cls-20" d="M1001.114,269.595s-6.24,2.751-9.175.193c-2.495-2.173-7.289-3.18-8.765-3.492-1.974-.418-7.552-3.96-8.106-1.476s8.919,6.28,10.745,7.473-7.5,4.045-8.8,5.91,4.31,17.049,10.485,14.349,10.99-9.661,12.172-9.921a41,41,0,0,0,4.571-1.787Z" transform="translate(-975.044 -263.944)"/>
              </g>
            </g>
          </g>
          <g id="Grupo_29" data-name="Grupo 29" transform="translate(19.49 128.137)">
            <g id="Grupo_28" data-name="Grupo 28">
              <path id="Caminho_61" data-name="Caminho 61" class="cls-21" d="M988.038,299.678l9.83,12.117s63.25-26.134,72.928-35.207c0,0,2.561-.987,15.65-11.364v0c2.8-2.22,5.532-4.323,8.043-6.164l1.707-1.518.008-.013c4.7-4.2,17.464-15.591,17.464-15.591s31.719-16.847,18.794-35.045c0,0-5.38-4.86-13.635-.934s-20.2,14.235-23.028,16.948-21.162,18.345-22.145,19.343c-3.658,3.706-16.119,14.808-22.547,19.653C1039.77,270.443,988.038,299.678,988.038,299.678Z" transform="translate(-988.038 -204.425)"/>
            </g>
          </g>
          <g id="Grupo_35" data-name="Grupo 35" transform="translate(154.114 45.403)">
            <g id="Grupo_34" data-name="Grupo 34">
              <g id="Grupo_33" data-name="Grupo 33">
                <g id="Grupo_32" data-name="Grupo 32">
                  <g id="Grupo_31" data-name="Grupo 31">
                    <g id="Grupo_30" data-name="Grupo 30">
                      <path id="Caminho_62" data-name="Caminho 62" class="cls-22" d="M1124.056,198.637l-.012.019a75.549,75.549,0,0,1-8.6,14.195c-11.187,14.352-37.274,14.707-37.656-24.7a60.919,60.919,0,0,1,2.356-18.423c5.34-17.488,17.886-20.4,17.886-20.4,9.271-.51,25.494,1.785,30.9,13.854C1132.772,171.763,1130,185.976,1124.056,198.637Z" transform="translate(-1077.787 -149.269)"/>
                    </g>
                  </g>
                </g>
              </g>
            </g>
          </g>
          <g id="Grupo_41" data-name="Grupo 41" transform="translate(156.475 43.63)">
            <g id="Grupo_40" data-name="Grupo 40">
              <g id="Grupo_39" data-name="Grupo 39">
                <g id="Grupo_38" data-name="Grupo 38">
                  <g id="Grupo_37" data-name="Grupo 37">
                    <g id="Grupo_36" data-name="Grupo 36">
                      <path id="Caminho_63" data-name="Caminho 63" class="cls-23" d="M1123.269,199.228l-.012.019s-1.336.357-6.151-9.37c-.966-1.95-1.709-.558-2.129-1.419l-7.672-2.992s7.59-12.695-2.34-16.215c-10.122-3.591-25.6,1.073-25.6,1.073,3.313-31.3,17.886-20.4,17.886-20.4,9.271-.51,29.094.048,34.5,12.118C1135.585,170.617,1129.209,186.566,1123.269,199.228Z" transform="translate(-1079.361 -148.087)"/>
                    </g>
                  </g>
                </g>
              </g>
            </g>
          </g>
          <g id="Grupo_47" data-name="Grupo 47" transform="translate(189.852 75.347)">
            <g id="Grupo_46" data-name="Grupo 46">
              <g id="Grupo_45" data-name="Grupo 45">
                <g id="Grupo_44" data-name="Grupo 44">
                  <g id="Grupo_43" data-name="Grupo 43">
                    <g id="Grupo_42" data-name="Grupo 42">
                      <path id="Caminho_64" data-name="Caminho 64" class="cls-22" d="M1102.289,171.988c.57-2.634,5.774-4.9,7.985.759s-5.187,11.665-7.136,10.422S1101.345,176.35,1102.289,171.988Z" transform="translate(-1101.613 -169.232)"/>
                    </g>
                  </g>
                </g>
              </g>
            </g>
          </g>
          <g id="Grupo_49" data-name="Grupo 49" transform="translate(57.098 536.083)">
            <g id="Grupo_48" data-name="Grupo 48">
              <path id="Caminho_65" data-name="Caminho 65" class="cls-24" d="M1046.781,476.748s-10.758,8.79-19.806,10.75-13.8,6.586-13.865,11.958,26.04,8.91,36.393,3.495c15.455-8.081,17.027-5.644,18.74-9.684s.336-14.727.447-16.012C1068.828,475.668,1046.781,476.748,1046.781,476.748Z" transform="translate(-1013.11 -476.389)"/>
            </g>
          </g>
          <g id="Grupo_51" data-name="Grupo 51" transform="translate(90.488 530.883)">
            <g id="Grupo_50" data-name="Grupo 50">
              <path id="Caminho_66" data-name="Caminho 66" class="cls-24" d="M1036.388,475.559a36.716,36.716,0,0,0-1,4.478c.174.093,20.389,2.358,19.779-1.161-.5-2.853-1.2-5.953-1.2-5.953Z" transform="translate(-1035.37 -472.922)"/>
            </g>
          </g>
          <g id="Grupo_53" data-name="Grupo 53" transform="translate(192.288 543.252)">
            <g id="Grupo_52" data-name="Grupo 52">
              <path id="Caminho_67" data-name="Caminho 67" class="cls-24" d="M1130.314,481.4s-6.695,10.137-15.19,12.174c-8.377,2.009-11.469,5.2-11.88,10.257s19.75,11.679,33.917,2.8c9.306-5.837,12.778-5.5,14.653-9.213s.453-14.152.639-15.355C1152.685,480.569,1130.314,481.4,1130.314,481.4Z" transform="translate(-1103.237 -481.168)"/>
            </g>
          </g>
          <g id="Grupo_55" data-name="Grupo 55" transform="translate(221.321 538.195)">
            <g id="Grupo_54" data-name="Grupo 54">
              <path id="Caminho_68" data-name="Caminho 68" class="cls-25" d="M1122.889,479.393a38.86,38.86,0,0,0-.261,4.367c.159.1,18.825,3.4,18.713.035a25.987,25.987,0,0,0-1.183-6Z" transform="translate(-1122.592 -477.797)"/>
            </g>
          </g>
          <g id="Grupo_57" data-name="Grupo 57" transform="translate(87.247 263.514)">
            <g id="Grupo_56" data-name="Grupo 56" transform="translate(0 0)">
              <path id="Caminho_69" data-name="Caminho 69" class="cls-26" d="M1090.509,313.525s-25.364,62.917-32.658,84.283c-9.594,28.111-14.875,52.88-16.085,66.355-1.518,16.951-7.467,96.942-8.529,101.9s28.469,3.294,28.469,3.294,16.616-100.869,21.14-118.922c4.212-16.81,44.1-93.066,47.943-88.476s16.614,82.645,19.461,95.9,10.477,117.618,10.477,117.618,25.92,4.155,31.139,0c0,0-4.088-93.059-5.9-117.914-.692-9.472,5.991-113.4-10.026-155.305C1167.472,280.111,1090.509,313.525,1090.509,313.525Z" transform="translate(-1033.209 -294.676)"/>
            </g>
          </g>
          <g id="Grupo_58" data-name="Grupo 58" transform="translate(137.504 124.372)">
            <path id="Caminho_70" data-name="Caminho 70" class="cls-27" d="M1101.132,201.915s-21.945,4.508-24.793,7.031c-3.09,2.684-9.261,29.832-9.588,37.153s1.56,37.5,4.651,48.883-2.734,58.791-4.687,74.574c0,0,38.047,17.288,102.375,3.813,0,0-11.3-49.066-9.4-64.672,2.438-19.993,8.937-63.774,8.937-63.774s5.9-41.713.457-40.686c-17.832,3.366-40.861-2.322-40.861-2.322Z" transform="translate(-1066.714 -201.915)"/>
          </g>
          <g id="Grupo_59" data-name="Grupo 59" transform="translate(167.009 93.928)">
            <path id="Caminho_71" data-name="Caminho 71" class="cls-28" d="M1086.384,217.148s6.734,5.059,29.256-4.866a62.159,62.159,0,0,1,2.175-26.688c4.415-14.421-29.043,15.036-29.043,15.036.368.255.437,1.7.227,3.707-.012.13-.03.262-.045.394a39.47,39.47,0,0,1-.9,4.917c-.051.216-.108.431-.163.65C1086.622,215.12,1086.384,212.937,1086.384,217.148Z" transform="translate(-1086.384 -181.619)"/>
          </g>
          <g id="Grupo_60" data-name="Grupo 60" transform="translate(168.676 106.131)">
            <path id="Caminho_72" data-name="Caminho 72" class="cls-29" d="M1087.495,205.581h0c16.135,2.073,24.942-15.315,25.2-15.827-11.044,16.1-24.291,10.874-24.291,10.874h0A39.821,39.821,0,0,1,1087.495,205.581Z" transform="translate(-1087.495 -189.754)"/>
          </g>
          <g id="Grupo_61" data-name="Grupo 61" transform="translate(165.311 122.847)">
            <path id="Caminho_73" data-name="Caminho 73" class="cls-28" d="M1087.043,203.467s-5.159,7.675,2.032,8.982,21.871-.29,29.877-10.026C1118.953,202.423,1097.873,198.376,1087.043,203.467Z" transform="translate(-1085.252 -200.898)"/>
          </g>
          <g id="Grupo_62" data-name="Grupo 62" transform="translate(203.718 39.955)">
            <path id="Caminho_74" data-name="Caminho 74" class="cls-27" d="M1111.354,271.384c-2.283-4.715,3.489-17.013,13.281-25.607a71.889,71.889,0,0,1,20.041-12.531c4.032-1.51,31.568-10.383,32.9-13.828,1.683-4.365,8.994-25.788,9.588-27.661,1.183-3.734,14.925-46.119,14.925-46.119l17.125,3.923s-12.769,61.286-14.361,69.139c-1.05,5.175-1.93,14.313-13.459,21.672-11.716,7.477-37.4,26.449-39.979,27.453S1121.525,292.387,1111.354,271.384Z" transform="translate(-1110.856 -145.637)"/>
          </g>
        </g>
      </g>
    </g>
  </g>
</svg>
