<svg id="Grupo_2" data-name="Grupo 2" xmlns="http://www.w3.org/2000/svg" width="86.934" height="30.868" viewBox="0 0 86.934 30.868">
  <path id="Caminho_7" data-name="Caminho 7" d="M1173.293,525h3.816l-1.908-4.606Z" transform="translate(-1154.653 -509.235)" fill="#5d15d3"/>
  <path id="Caminho_8" data-name="Caminho 8" d="M1283.141,534.493a.963.963,0,0,0,.4.816,1.816,1.816,0,0,0,1.109.3,2.334,2.334,0,0,0,1.22-.318,1.741,1.741,0,0,0,.756-.937v-.945h-1.839Q1283.141,533.41,1283.141,534.493Z" transform="translate(-1218.68 -516.824)" fill="#5d15d3"/>
  <path id="Caminho_9" data-name="Caminho 9" d="M1223.938,525.458a2.233,2.233,0,0,0-1.693.7,2.959,2.959,0,0,0,0,3.73,2.407,2.407,0,0,0,3.386,0,2.958,2.958,0,0,0,0-3.73A2.234,2.234,0,0,0,1223.938,525.458Z" transform="translate(-1182.8 -512.189)" fill="#5d15d3"/>
  <path id="Caminho_10" data-name="Caminho 10" d="M1205.976,493.649h-67.8a9.594,9.594,0,0,0-9.566,9.566v11.736a9.594,9.594,0,0,0,9.566,9.566h67.8a9.594,9.594,0,0,0,9.566-9.566V503.215A9.594,9.594,0,0,0,1205.976,493.649Zm-52.97,20.453-1.065-2.577h-5.586l-1.066,2.577h-2.853l5.362-12.031h2.75l5.38,12.031Zm7.958,0h-2.681V501.349h2.681Zm13.252-2.122a4.262,4.262,0,0,1-1.659,1.667,4.712,4.712,0,0,1-2.346.593,3.57,3.57,0,0,1-2.785-1.117v4.314h-2.681V504.854h2.561v1.066a3.557,3.557,0,0,1,2.905-1.2,4.72,4.72,0,0,1,2.346.592,4.264,4.264,0,0,1,1.659,1.668,5.5,5.5,0,0,1,0,5Zm13.131,2.122h-2.681V509.22a2.409,2.409,0,0,0-.481-1.641,1.764,1.764,0,0,0-1.392-.542,2.135,2.135,0,0,0-1.616.627,2.6,2.6,0,0,0-.6,1.865V514.1h-2.681V501.349h2.681v4.469a3.575,3.575,0,0,1,1.289-.817,4.666,4.666,0,0,1,1.65-.283,3.8,3.8,0,0,1,2.776,1.031,4.089,4.089,0,0,1,1.057,3.059Zm11.893,0h-2.509V512.95a2.989,2.989,0,0,1-2.819,1.289,4.373,4.373,0,0,1-1.848-.361,2.755,2.755,0,0,1-1.195-1,2.6,2.6,0,0,1-.412-1.444,2.409,2.409,0,0,1,.971-2.028,4.946,4.946,0,0,1,3-.739h2.131a1.71,1.71,0,0,0-.533-1.349,2.348,2.348,0,0,0-1.6-.473,4.674,4.674,0,0,0-1.452.232,3.845,3.845,0,0,0-1.212.627l-.963-1.873a5.824,5.824,0,0,1,1.813-.825,8.122,8.122,0,0,1,2.174-.292,4.818,4.818,0,0,1,3.3,1.022,3.915,3.915,0,0,1,1.151,3.085Z" transform="translate(-1128.608 -493.649)" fill="#5d15d3"/>
</svg>
