<svg xmlns="http://www.w3.org/2000/svg" xmlns:xlink="http://www.w3.org/1999/xlink" width="315" height="50" viewBox="0 0 315 50"><defs><clipPath id="a"><rect width="315" height="50" fill="none"/></clipPath></defs><g clip-path="url(#a)"><path d="M588.84,523.044a19.617,19.617,0,0,1-5.855-2.382l1.774-3.821a2.731,2.731,0,0,1,3.527-1.394,22.121,22.121,0,0,0,2.678.939,20.912,20.912,0,0,0,5.739.832q5.682,0,5.682-2.813a1.991,1.991,0,0,0-1.55-1.894,23.106,23.106,0,0,0-4.764-.975,45.768,45.768,0,0,1-6.256-1.32,9.7,9.7,0,0,1-4.276-2.64,7.507,7.507,0,0,1-1.808-5.4,8.45,8.45,0,0,1,1.693-5.194,10.9,10.9,0,0,1,4.936-3.53,21.09,21.09,0,0,1,7.663-1.263,30.085,30.085,0,0,1,6.514.717,18.25,18.25,0,0,1,5.367,1.981l-1.719,3.67a3.015,3.015,0,0,1-3.8,1.521,18.076,18.076,0,0,0-6.359-1.116,9.05,9.05,0,0,0-4.3.8,2.363,2.363,0,0,0-1.435,2.066,2.051,2.051,0,0,0,1.55,2.009,27.463,27.463,0,0,0,4.936,1.09,53.067,53.067,0,0,1,6.2,1.349,9.319,9.319,0,0,1,4.19,2.612,7.414,7.414,0,0,1,1.779,5.281,8.151,8.151,0,0,1-1.722,5.108,10.992,10.992,0,0,1-5.022,3.473,22.4,22.4,0,0,1-7.835,1.234A29.978,29.978,0,0,1,588.84,523.044Z" transform="translate(-582.985 -485.822)" fill="#35435d"/><path d="M685.9,493.294l-13.947,33.542q-2.124,5.463-5.252,7.7a12.661,12.661,0,0,1-7.548,2.232,15.368,15.368,0,0,1-4.764-.763,10.461,10.461,0,0,1-3.846-2.115l1.833-3.653a2.973,2.973,0,0,1,3.794-1.41l.027.011a7.276,7.276,0,0,0,2.669.529,4.665,4.665,0,0,0,2.984-.911,7.743,7.743,0,0,0,2.066-3.025l.115-.294L650.66,493.294h6.5a4.1,4.1,0,0,1,3.791,2.594l7.619,18.847,7.55-18.556a4.58,4.58,0,0,1,4.227-2.885Z" transform="translate(-622.363 -486.463)" fill="#35435d"/><path d="M741.711,523.044a19.617,19.617,0,0,1-5.855-2.382l1.874-4.036a2.528,2.528,0,0,1,3.327-1.222,22,22,0,0,0,2.778.982,20.912,20.912,0,0,0,5.739.832q5.682,0,5.682-2.813a1.991,1.991,0,0,0-1.55-1.894,23.106,23.106,0,0,0-4.764-.975,45.779,45.779,0,0,1-6.257-1.32,9.7,9.7,0,0,1-4.276-2.64,7.506,7.506,0,0,1-1.808-5.4,8.45,8.45,0,0,1,1.693-5.194,10.9,10.9,0,0,1,4.936-3.53,21.09,21.09,0,0,1,7.663-1.263,30.087,30.087,0,0,1,6.514.717,18.251,18.251,0,0,1,5.367,1.981l-1.886,4.026a2.568,2.568,0,0,1-3.269,1.306,18.02,18.02,0,0,0-6.726-1.257,9.051,9.051,0,0,0-4.3.8,2.363,2.363,0,0,0-1.435,2.066,2.051,2.051,0,0,0,1.55,2.009,27.465,27.465,0,0,0,4.936,1.09,53.068,53.068,0,0,1,6.2,1.349,9.319,9.319,0,0,1,4.19,2.612,7.414,7.414,0,0,1,1.779,5.281,8.152,8.152,0,0,1-1.722,5.108,10.992,10.992,0,0,1-5.022,3.473,22.4,22.4,0,0,1-7.835,1.234A29.978,29.978,0,0,1,741.711,523.044Z" transform="translate(-672.088 -485.822)" fill="#35435d"/><path d="M830.858,513.136a9.181,9.181,0,0,1-3.243,1.464,16.434,16.434,0,0,1-4.047.488q-5.51,0-8.523-2.813t-3.013-8.265V491.326h-2.147a2.617,2.617,0,0,1-2.617-2.617v-4.271h4.764v-4.566a2.953,2.953,0,0,1,2.953-2.953h6v7.519h5.3a2.392,2.392,0,0,1,2.392,2.392v4.5h-7.691V503.9a4.212,4.212,0,0,0,1,3.013,3.718,3.718,0,0,0,2.841,1.062,6.613,6.613,0,0,0,1.7-.211,2.451,2.451,0,0,1,2.863,1.551Z" transform="translate(-713.711 -476.919)" fill="#35435d"/><path d="M898.145,510.617H877.1a7.27,7.27,0,0,0,2.985,4.535,9.881,9.881,0,0,0,5.854,1.664,11.829,11.829,0,0,0,4.276-.718,9.506,9.506,0,0,0,1.555-.77,3.013,3.013,0,0,1,3.788.531L898.45,519q-4.362,4.994-12.742,4.994a20.157,20.157,0,0,1-9.241-2.037,14.934,14.934,0,0,1-6.2-5.653,15.574,15.574,0,0,1-2.181-8.209,15.787,15.787,0,0,1,2.152-8.179,15.079,15.079,0,0,1,5.912-5.682,18.3,18.3,0,0,1,16.617-.085,14.249,14.249,0,0,1,5.768,5.6,16.693,16.693,0,0,1,2.095,8.466v0A2.467,2.467,0,0,1,898.145,510.617Zm-18.636-9.929a7.328,7.328,0,0,0-2.525,4.706h15.21a7.409,7.409,0,0,0-2.526-4.678,7.552,7.552,0,0,0-5.051-1.75A7.709,7.709,0,0,0,879.509,500.688Z" transform="translate(-749.161 -485.822)" fill="#35435d"/><path d="M1009.173,495.608q3.414,3.416,3.415,10.245v14.982a2.7,2.7,0,0,1-2.7,2.7h-6.258v-16.3q0-3.671-1.52-5.481a5.35,5.35,0,0,0-4.334-1.808,6.385,6.385,0,0,0-4.994,2.037q-1.838,2.039-1.837,6.056v12.348a3.149,3.149,0,0,1-3.149,3.149H982v-16.3q0-7.288-5.854-7.289a6.318,6.318,0,0,0-4.936,2.037q-1.838,2.039-1.837,6.056v12.293a3.2,3.2,0,0,1-3.2,3.2h-5.75V492.652h5.346a3.206,3.206,0,0,1,3.207,3.207v.352a11.308,11.308,0,0,1,4.219-2.985,14.2,14.2,0,0,1,5.482-1.033,13.276,13.276,0,0,1,5.912,1.291,10.483,10.483,0,0,1,4.248,3.759,12.667,12.667,0,0,1,4.792-3.73,15.111,15.111,0,0,1,6.342-1.32A12.451,12.451,0,0,1,1009.173,495.608Z" transform="translate(-802.975 -485.822)" fill="#35435d"/><g transform="translate(227.599 6.979)"><path d="M1173.293,525h3.816l-1.908-4.606Z" transform="translate(-1154.653 -509.235)" fill="#5d15d3"/><path d="M1283.141,534.493a.963.963,0,0,0,.4.816,1.816,1.816,0,0,0,1.109.3,2.334,2.334,0,0,0,1.22-.318,1.741,1.741,0,0,0,.756-.937v-.945h-1.839Q1283.141,533.41,1283.141,534.493Z" transform="translate(-1218.68 -516.824)" fill="#5d15d3"/><path d="M1223.938,525.458a2.233,2.233,0,0,0-1.693.7,2.959,2.959,0,0,0,0,3.73,2.407,2.407,0,0,0,3.386,0,2.958,2.958,0,0,0,0-3.73A2.234,2.234,0,0,0,1223.938,525.458Z" transform="translate(-1182.8 -512.189)" fill="#5d15d3"/><path d="M1205.976,493.649h-67.8a9.594,9.594,0,0,0-9.566,9.566v11.736a9.594,9.594,0,0,0,9.566,9.566h67.8a9.594,9.594,0,0,0,9.566-9.566V503.215A9.594,9.594,0,0,0,1205.976,493.649Zm-52.97,20.453-1.065-2.577h-5.586l-1.066,2.577h-2.853l5.362-12.031h2.75l5.38,12.031Zm7.958,0h-2.681V501.349h2.681Zm13.252-2.122a4.262,4.262,0,0,1-1.659,1.667,4.712,4.712,0,0,1-2.346.593,3.57,3.57,0,0,1-2.785-1.117v4.314h-2.681V504.854h2.561v1.066a3.557,3.557,0,0,1,2.905-1.2,4.72,4.72,0,0,1,2.346.592,4.264,4.264,0,0,1,1.659,1.668,5.5,5.5,0,0,1,0,5Zm13.131,2.122h-2.681V509.22a2.409,2.409,0,0,0-.481-1.641,1.764,1.764,0,0,0-1.392-.542,2.135,2.135,0,0,0-1.616.627,2.6,2.6,0,0,0-.6,1.865V514.1h-2.681V501.349h2.681v4.469a3.575,3.575,0,0,1,1.289-.817,4.666,4.666,0,0,1,1.65-.283,3.8,3.8,0,0,1,2.776,1.031,4.089,4.089,0,0,1,1.057,3.059Zm11.893,0h-2.509V512.95a2.989,2.989,0,0,1-2.819,1.289,4.373,4.373,0,0,1-1.848-.361,2.755,2.755,0,0,1-1.195-1,2.6,2.6,0,0,1-.412-1.444,2.409,2.409,0,0,1,.971-2.028,4.946,4.946,0,0,1,3-.739h2.131a1.71,1.71,0,0,0-.533-1.349,2.348,2.348,0,0,0-1.6-.473,4.674,4.674,0,0,0-1.452.232,3.845,3.845,0,0,0-1.212.627l-.963-1.873a5.824,5.824,0,0,1,1.813-.825,8.122,8.122,0,0,1,2.174-.292,4.818,4.818,0,0,1,3.3,1.022,3.915,3.915,0,0,1,1.151,3.085Z" transform="translate(-1128.608 -493.649)" fill="#5d15d3"/></g></g></svg>